<?xml version='1.0' encoding='UTF-8'?>
<svg x="0px" y="0px" viewBox="0 0 32 32" version="1.1" xmlns="http://www.w3.org/2000/svg" xmlns:xlink="http://www.w3.org/1999/xlink" xml:space="preserve" id="Layer_1" style="enable-background:new 0 0 32 32">
  <style type="text/css">
	.Red{fill:#D11C1C;}
	.Black{fill:#727272;}
	.Blue{fill:#1177D7;}
</style>
  <path d="M20,8H2V6h18V8z M20,18H2v-2h18V18z M20,28H2v-2h18V28z" class="Black" />
  <path d="M28,2v8h-2V5.25l-2,0V3.67l0.15,0c0.24,0,0.48-0.02,0.71-0.06c0.26-0.05,0.49-0.14,0.69-0.26  c0.2-0.12,0.37-0.28,0.51-0.48c0.14-0.2,0.23-0.44,0.27-0.74L26.37,2H28z M30,20v-1.61h-3.42c0.13-0.16,0.28-0.3,0.44-0.42  c0.24-0.19,0.49-0.37,0.75-0.54c0.26-0.17,0.52-0.34,0.77-0.51c0.26-0.18,0.5-0.38,0.71-0.6c0.21-0.22,0.38-0.48,0.51-0.77  c0.13-0.29,0.2-0.64,0.2-1.04c0-0.39-0.08-0.74-0.22-1.06c-0.15-0.31-0.35-0.58-0.6-0.79c-0.25-0.21-0.54-0.38-0.87-0.49  C27.93,12.06,27.58,12,27.22,12c-0.47,0-0.9,0.08-1.26,0.24c-0.37,0.16-0.68,0.4-0.92,0.69c-0.24,0.29-0.42,0.63-0.55,1.02  c-0.12,0.39-0.17,0.81-0.16,1.25l0,0.14h1.75V15.2c0-0.19,0.02-0.39,0.06-0.58c0.04-0.19,0.1-0.36,0.18-0.52  c0.08-0.15,0.19-0.27,0.33-0.36c0.13-0.09,0.29-0.13,0.49-0.13c0.3,0,0.53,0.09,0.71,0.27c0.18,0.18,0.27,0.43,0.27,0.75  c0,0.2-0.05,0.39-0.14,0.54c-0.1,0.17-0.22,0.32-0.36,0.45c-0.15,0.14-0.31,0.26-0.49,0.38c-0.19,0.12-0.37,0.24-0.53,0.35  c-0.33,0.22-0.63,0.44-0.93,0.66c-0.3,0.22-0.56,0.47-0.79,0.73c-0.22,0.27-0.41,0.57-0.54,0.91c-0.13,0.34-0.2,0.74-0.2,1.2V20H30z   M28.15,29.83c0.35-0.11,0.66-0.28,0.93-0.49c0.27-0.22,0.49-0.49,0.65-0.81c0.16-0.32,0.24-0.69,0.24-1.1  c0-0.46-0.13-0.85-0.38-1.18c-0.18-0.24-0.41-0.41-0.69-0.53c0.21-0.12,0.39-0.28,0.51-0.48c0.19-0.3,0.28-0.64,0.28-1.03  c0-0.36-0.08-0.68-0.24-0.95c-0.16-0.27-0.36-0.5-0.62-0.69c-0.25-0.19-0.53-0.33-0.85-0.42C27.68,22.05,27.36,22,27.05,22  c-0.4,0-0.77,0.07-1.09,0.2c-0.33,0.13-0.61,0.32-0.85,0.56c-0.24,0.24-0.42,0.53-0.55,0.86c-0.13,0.33-0.2,0.7-0.22,1.09  l-0.01,0.15h1.73l0-0.14c-0.01-0.35,0.08-0.64,0.25-0.86c0.17-0.22,0.41-0.32,0.75-0.32c0.24,0,0.46,0.07,0.64,0.22  c0.18,0.14,0.27,0.35,0.27,0.62c0,0.18-0.04,0.32-0.12,0.42c-0.09,0.11-0.2,0.19-0.34,0.25c-0.14,0.06-0.3,0.1-0.47,0.11  c-0.09,0.01-0.17,0.01-0.26,0.01c-0.08,0-0.16,0-0.24-0.01l-0.15-0.01v1.36h0.14c0.18,0,0.37,0.01,0.57,0.02  c0.19,0.01,0.36,0.05,0.51,0.11c0.15,0.06,0.26,0.15,0.36,0.28c0.09,0.12,0.14,0.31,0.14,0.56c0,0.32-0.1,0.57-0.3,0.75  c-0.21,0.19-0.46,0.28-0.77,0.28c-0.2,0-0.37-0.03-0.51-0.1c-0.14-0.07-0.26-0.16-0.35-0.28c-0.09-0.12-0.17-0.26-0.22-0.42  c-0.05-0.17-0.08-0.35-0.09-0.53l0-0.14h-1.71l0,0.14c-0.01,0.45,0.06,0.85,0.2,1.2c0.14,0.35,0.34,0.65,0.59,0.89  c0.25,0.24,0.56,0.43,0.93,0.56c0.36,0.12,0.76,0.19,1.19,0.19C27.44,30,27.8,29.94,28.15,29.83z" class="Red" />
</svg>